<svg width="60" height="60" viewBox="0 0 60 60" fill="none" xmlns="http://www.w3.org/2000/svg">
<circle cx="30" cy="30" r="30" fill="white"/>
<path d="M35.2325 31.7808H43.9932C45.5459 31.7792 47.0344 31.1617 48.1324 30.0638C49.2303 28.966 49.8479 27.4774 49.8497 25.9248V23.4576C49.8479 21.9049 49.2303 20.4164 48.1324 19.3185C47.0344 18.2207 45.5459 17.6032 43.9932 17.6016H35.2325C33.6799 17.6034 32.1915 18.2209 31.0937 19.3188C29.9958 20.4166 29.3783 21.905 29.3765 23.4576V25.9248C29.3783 27.4774 29.9959 28.9658 31.0937 30.0636C32.1915 31.1614 33.6799 31.779 35.2325 31.7808ZM31.376 23.4576C31.3774 22.4352 31.7841 21.4551 32.5071 20.7323C33.23 20.0094 34.2101 19.6028 35.2325 19.6016H43.9932C45.0156 19.6028 45.9957 20.0094 46.7187 20.7323C47.4416 21.4551 47.8484 22.4352 47.8497 23.4576V25.9248C47.8484 26.9472 47.4416 27.9273 46.7187 28.6501C45.9957 29.373 45.0156 29.7796 43.9932 29.7808H35.2325C34.2101 29.7796 33.23 29.373 32.507 28.6501C31.7841 27.9273 31.3773 26.9472 31.376 25.9248L31.376 23.4576Z" fill="#6B9D52"/>
<path d="M51.5761 32.7515H24.959C24.2743 32.8144 23.584 32.7355 22.9311 32.5198C22.2783 32.304 21.6769 31.9561 21.1645 31.4976C20.6062 30.8611 20.299 30.0429 20.3003 29.1963L23.7393 18.3076H25.2666C25.6623 18.3051 26.0535 18.2236 26.4173 18.0679C26.7811 17.9122 27.1101 17.6855 27.3852 17.401C27.6602 17.1165 27.8757 16.7799 28.019 16.4111C28.1623 16.0422 28.2305 15.6485 28.2197 15.2529C28.2306 14.8573 28.1624 14.4635 28.0191 14.0946C27.8759 13.7256 27.6604 13.389 27.3853 13.1044C27.1103 12.8198 26.7812 12.593 26.4174 12.4372C26.0536 12.2815 25.6623 12.1999 25.2666 12.1973H13.4487C13.047 12.1965 12.6491 12.275 12.2778 12.4282C11.9065 12.5815 11.5691 12.8064 11.2848 13.0902C11.0005 13.3739 10.7749 13.711 10.6211 14.082C10.4672 14.453 10.388 14.8508 10.388 15.2524C10.388 15.6541 10.4672 16.0519 10.6211 16.4229C10.7749 16.7939 11.0005 17.131 11.2848 17.4147C11.5691 17.6985 11.9065 17.9234 12.2778 18.0766C12.6491 18.2299 13.047 18.3083 13.4487 18.3076H15.6377C14.2588 21.0747 11.1704 27.2329 8.86033 31.5444C5.53123 37.9736 8.9951 40.7036 9.14402 40.8169C9.31801 40.9487 9.53027 41.02 9.74852 41.02H10.3938L10.3931 41.0479C10.3952 42.838 11.1079 44.5541 12.3745 45.8191C13.6411 47.0842 15.358 47.7948 17.1482 47.7948C18.9383 47.7948 20.6553 47.0842 21.9219 45.8191C23.1885 44.5541 23.9011 42.838 23.9033 41.0479L23.9025 41.02H37.2166L37.2158 41.0478C37.209 41.9325 37.3774 42.8097 37.7113 43.6289C38.0452 44.4482 38.5379 45.1932 39.161 45.8212C39.7842 46.4491 40.5255 46.9475 41.3421 47.2876C42.1588 47.6277 43.0347 47.8028 43.9194 47.8028C44.804 47.8028 45.68 47.6277 46.4966 47.2876C47.3133 46.9475 48.0546 46.4491 48.6777 45.8212C49.3009 45.1932 49.7936 44.4482 50.1275 43.6289C50.4613 42.8097 50.6298 41.9325 50.623 41.0478L50.6222 41.02H51.5761C51.7075 41.02 51.8375 40.9942 51.9589 40.944C52.0802 40.8937 52.1904 40.82 52.2833 40.7272C52.3762 40.6343 52.4498 40.5241 52.5001 40.4027C52.5503 40.2814 52.5762 40.1513 52.5761 40.02V33.7515C52.5762 33.6201 52.5503 33.4901 52.5001 33.3687C52.4498 33.2474 52.3762 33.1371 52.2833 33.0443C52.1904 32.9514 52.0802 32.8778 51.9588 32.8275C51.8375 32.7773 51.7075 32.7514 51.5761 32.7515ZM50.5761 34.7515V39.02H50.2851C50.2578 38.9394 50.2195 38.8641 50.1892 38.785C50.1565 38.6998 50.1223 38.6163 50.0863 38.5328C49.963 38.2431 49.8193 37.9626 49.6563 37.6933C49.6423 37.6705 49.6318 37.6459 49.6175 37.6232C49.4351 37.3378 49.2318 37.0664 49.0092 36.8111C48.9535 36.7462 48.8958 36.6843 48.8377 36.6215C48.6375 36.404 48.4237 36.1995 48.1977 36.0091C48.1601 35.9776 48.1261 35.9427 48.0879 35.9121C47.8245 35.7021 47.5461 35.5114 47.2552 35.3416C47.1846 35.2999 47.1124 35.2631 47.0404 35.2241C46.7916 35.0888 46.5347 34.969 46.2711 34.8655C46.2071 34.8404 46.1457 34.8112 46.0809 34.788C46.0505 34.7771 46.0218 34.7619 45.9912 34.7515L50.5761 34.7515ZM10.6298 32.4766C13.686 26.7725 18.103 17.8403 18.1474 17.7505C18.2228 17.598 18.2581 17.4289 18.2499 17.259C18.2417 17.0891 18.1902 16.9242 18.1005 16.7797C18.0107 16.6352 17.8856 16.5161 17.7369 16.4335C17.5883 16.3509 17.421 16.3075 17.2509 16.3076H13.4487C13.3098 16.308 13.1723 16.2811 13.0439 16.2282C12.9155 16.1754 12.7988 16.0977 12.7005 15.9997C12.6021 15.9017 12.5241 15.7852 12.4709 15.657C12.4177 15.5288 12.3903 15.3913 12.3903 15.2524C12.3903 15.1136 12.4177 14.9761 12.4709 14.8479C12.5241 14.7197 12.6021 14.6032 12.7005 14.5052C12.7988 14.4071 12.9155 14.3295 13.0439 14.2767C13.1723 14.2238 13.3098 14.1968 13.4487 14.1973H25.2666C25.3996 14.2004 25.5307 14.2306 25.6517 14.2861C25.7727 14.3416 25.8811 14.4212 25.9703 14.52C26.0595 14.6188 26.1276 14.7347 26.1705 14.8608C26.2134 14.9868 26.2301 15.1202 26.2197 15.2529C26.2301 15.3856 26.2133 15.5189 26.1704 15.6449C26.1275 15.7708 26.0593 15.8867 25.9701 15.9854C25.8809 16.0841 25.7725 16.1636 25.6515 16.219C25.5306 16.2744 25.3996 16.3046 25.2666 16.3076H23.0063C22.7937 16.3076 22.5867 16.3754 22.4152 16.501C22.2437 16.6266 22.1167 16.8037 22.0527 17.0064L18.3525 28.7222C18.3305 28.792 18.3163 28.8641 18.31 28.937C18.2414 30.3633 18.7307 31.7603 19.6743 32.832C20.3692 33.5076 21.1996 34.028 22.1106 34.3589C23.0216 34.6897 23.9924 34.8235 24.959 34.7515H41.7451C41.7187 34.7606 41.6942 34.7738 41.668 34.7832C41.6088 34.8044 41.5531 34.8317 41.4946 34.8545C41.2335 34.9571 40.9792 35.0762 40.7332 35.211C40.66 35.251 40.5866 35.2894 40.515 35.3321C40.2309 35.4996 39.9596 35.6877 39.7031 35.895C39.6671 35.9244 39.6351 35.9583 39.5997 35.9885C39.3783 36.1781 39.1694 36.3818 38.9743 36.5983C38.9153 36.6633 38.8572 36.7277 38.8007 36.795C38.5835 37.05 38.3855 37.3206 38.2083 37.6048C38.1973 37.6227 38.1892 37.6423 38.1783 37.6604C38.0152 37.9362 37.8719 38.2233 37.7493 38.5194C37.7138 38.6037 37.6805 38.6882 37.6483 38.7742C37.6173 38.857 37.5785 38.9357 37.5507 39.0201H23.5649C23.5423 38.9535 23.5065 38.8935 23.4819 38.8279C23.4254 38.6775 23.3592 38.5337 23.2921 38.3886C23.204 38.1977 23.1115 38.011 23.0061 37.83C22.9253 37.691 22.8393 37.5577 22.7491 37.4252C22.6321 37.2534 22.5088 37.0885 22.3769 36.9282C22.2751 36.8044 22.1718 36.6842 22.0617 36.5678C21.9186 36.4164 21.7679 36.2754 21.6119 36.1374C21.4932 36.0324 21.3759 35.9282 21.2504 35.8314C21.0826 35.7021 20.9065 35.587 20.7276 35.4733C20.597 35.3902 20.4698 35.3044 20.3338 35.2302C20.1402 35.1244 19.938 35.0378 19.7347 34.951C19.6002 34.8935 19.4703 34.8289 19.3321 34.7801C19.0993 34.7026 18.8624 34.6379 18.6224 34.5863C18.502 34.5581 18.3858 34.5179 18.2636 34.4965C17.526 34.3619 16.7701 34.3619 16.0325 34.4965C15.91 34.5179 15.7937 34.5583 15.673 34.5865C15.4333 34.638 15.1966 34.7026 14.964 34.7801C14.8258 34.8289 14.6959 34.8936 14.5614 34.951C14.3582 35.0378 14.156 35.1244 13.9624 35.2301C13.8264 35.3044 13.6992 35.3903 13.5684 35.4734C13.3896 35.587 13.2135 35.7021 13.0458 35.8314C12.9203 35.9281 12.8032 36.0323 12.6845 36.1373C12.5284 36.2753 12.3775 36.4165 12.2344 36.5679C12.1244 36.6842 12.0212 36.8043 11.9195 36.928C11.7876 37.0883 11.6643 37.2533 11.5472 37.4251C11.457 37.5576 11.371 37.691 11.2902 37.8299C11.1848 38.0109 11.0923 38.1976 11.0042 38.3885C10.9372 38.5336 10.8709 38.6775 10.8144 38.8278C10.7897 38.8934 10.754 38.9535 10.7314 39.02H10.1606C9.65718 38.4102 8.56831 36.458 10.6298 32.4766ZM17.148 45.8027C15.8873 45.8014 14.6787 45.3 13.7872 44.4086C12.8958 43.5171 12.3944 42.3085 12.3931 41.0479C12.3825 40.8097 12.3999 40.5711 12.4448 40.3369C12.458 40.2974 12.4686 40.2572 12.4766 40.2163C12.6948 39.1382 13.2792 38.1687 14.1306 37.4723C14.9821 36.776 16.0482 36.3955 17.1482 36.3955C18.2482 36.3955 19.3143 36.776 20.1658 37.4723C21.0172 38.1687 21.6016 39.1382 21.8198 40.2163C21.8278 40.2572 21.8384 40.2974 21.8516 40.3369C21.8965 40.5711 21.9139 40.8097 21.9033 41.0479C21.9019 42.3086 21.4004 43.5172 20.5089 44.4086C19.6174 45.3 18.4087 45.8014 17.148 45.8027ZM43.8682 45.8027C42.6212 45.7876 41.4311 45.2786 40.5589 44.3872C39.6867 43.4958 39.2037 42.2949 39.2158 41.0479C39.2052 40.81 39.2226 40.5717 39.2676 40.3378C39.2812 40.2981 39.292 40.2575 39.2998 40.2163C39.5046 39.1506 40.0711 38.1884 40.9035 37.4922C41.7359 36.796 42.7831 36.4086 43.8682 36.3955C44.9648 36.4078 46.0247 36.7928 46.8737 37.4871C47.7227 38.1815 48.3102 39.1439 48.54 40.2163C48.548 40.2566 48.5584 40.2964 48.5712 40.3354C48.6162 40.5701 48.6335 40.8092 48.623 41.0479C48.6216 42.3085 48.1202 43.5171 47.2288 44.4086C46.3374 45.3 45.1288 45.8014 43.8681 45.8027H43.8682Z" fill="#6B9D52"/>
</svg>
