<svg width="60" height="60" viewBox="0 0 60 60" fill="none" xmlns="http://www.w3.org/2000/svg">
<circle cx="30" cy="30" r="30" fill="white"/>
<g clip-path="url(#clip0_103_111)">
<path d="M45.4808 16.4965H30L29.327 14.309C29.2991 14.225 29.255 14.1473 29.1972 14.0804C29.1393 14.0135 29.0688 13.9586 28.9898 13.9189C28.8301 13.8387 28.6451 13.8253 28.4755 13.8815C28.3059 13.9378 28.1656 14.0591 28.0855 14.2188C28.0053 14.3784 27.9919 14.5634 28.0481 14.733L31.4135 24.8296C31.4461 24.9255 31.4999 25.0129 31.571 25.0852C31.6421 25.1575 31.7286 25.2127 31.8241 25.2469C35.2972 26.4854 40.8029 29.2317 40.8029 31.3048C40.8029 32.0856 40.4933 32.2943 40.3856 32.3616C39.652 32.8462 37.9356 32.4154 37.0202 32.0318C36.8917 31.9775 36.7494 31.9645 36.6131 31.9947C36.4769 32.0248 36.3533 32.0966 36.2597 32.2C36.1655 32.3033 36.1059 32.4333 36.089 32.572C36.0721 32.7107 36.0988 32.8513 36.1654 32.9741C37.976 36.279 39.7529 40.3311 39.5308 41.0513C39.3138 41.3557 39.0366 41.6123 38.7164 41.8052C38.7066 41.7628 38.6907 41.722 38.6693 41.6841L37.3231 39.6647C37.2197 39.5272 37.0676 39.4346 36.8979 39.4057C36.7283 39.3769 36.5541 39.4142 36.4111 39.5098C36.2681 39.6054 36.1671 39.7522 36.1289 39.92C36.0907 40.0878 36.1183 40.2638 36.2058 40.4119L37.552 42.4312C37.5701 42.4575 37.5904 42.4823 37.6125 42.5052C37.3097 42.6802 36.9866 42.8552 36.6433 43.0235L35.2972 41.0042C35.1937 40.8667 35.0416 40.774 34.872 40.7452C34.7023 40.7164 34.5281 40.7536 34.3851 40.8493C34.2421 40.9449 34.1411 41.0917 34.1029 41.2595C34.0648 41.4272 34.0923 41.6033 34.1798 41.7514L35.3847 43.6226C34.8664 43.8582 34.3414 44.0668 33.8298 44.2486L32.5779 42.3706C32.4745 42.2331 32.3224 42.1404 32.1527 42.1116C31.9831 42.0828 31.8089 42.12 31.6659 42.2157C31.5229 42.3113 31.4219 42.4581 31.3837 42.6259C31.3455 42.7936 31.3731 42.9697 31.4606 43.1178L32.4837 44.6592C31.9682 44.8228 31.4205 44.8575 30.8885 44.7601C29.2597 44.2149 22.5962 31.7827 22.5962 29.2855C22.6308 28.9889 22.7379 28.7053 22.9081 28.46C23.0784 28.2146 23.3064 28.015 23.5722 27.8787C23.7257 27.8017 23.8441 27.6689 23.9029 27.5074C23.9617 27.346 23.9565 27.1682 23.8885 27.0104L18.5039 14.2618C18.47 14.18 18.4203 14.1056 18.3576 14.043C18.2949 13.9804 18.2204 13.9308 18.1385 13.897C18.0566 13.8632 17.9688 13.846 17.8802 13.8462C17.7916 13.8464 17.7039 13.8642 17.6222 13.8984C17.458 13.9681 17.3283 14.1001 17.2614 14.2654C17.1945 14.4308 17.1959 14.6159 17.2654 14.7801L17.9856 16.4965H14.5193C14.3408 16.4965 14.1696 16.5675 14.0433 16.6937C13.9171 16.8199 13.8462 16.9911 13.8462 17.1696V41.4013C13.8462 41.5799 13.9171 41.7511 14.0433 41.8773C14.1696 42.0035 14.3408 42.0744 14.5193 42.0744H27.0856C28.4318 44.188 29.6837 45.7765 30.451 46.0323C30.7254 46.1177 31.0117 46.1586 31.2991 46.1535C33.9577 46.1535 38.9991 43.6159 40.3923 42.0744H45.4808C45.6593 42.0744 45.8305 42.0035 45.9567 41.8773C46.083 41.7511 46.1539 41.5799 46.1539 41.4013V17.1696C46.1539 16.9911 46.083 16.8199 45.9567 16.6937C45.8305 16.5675 45.6593 16.4965 45.4808 16.4965ZM15.1923 40.7282V17.8428H18.5577L22.4347 27.0239C22.0785 27.2862 21.7868 27.6262 21.5815 28.0181C21.3763 28.4099 21.2629 28.8433 21.25 29.2855C21.25 31.0154 23.7539 36.4944 26.2577 40.7282H15.1923ZM30.4712 17.8428H32.3558V23.4699L30.4712 17.8428ZM44.8077 40.7282H40.8097C40.6683 39.0455 39.3087 36.104 38.1173 33.7684C39.1183 34.0583 40.1922 33.9547 41.1193 33.4789C41.4607 33.2335 41.7322 32.9032 41.9069 32.5208C42.0816 32.1383 42.1535 31.7168 42.1154 31.2981C42.1154 28.3364 36.502 25.6642 33.702 24.5199V17.8428H44.8077V40.7282Z" fill="#6B9D52"/>
</g>
<defs>
<clipPath id="clip0_103_111">
<rect width="32.3077" height="32.3077" fill="white" transform="translate(13.8462 13.8462)"/>
</clipPath>
</defs>
</svg>
