<svg width="60" height="60" viewBox="0 0 60 60" fill="none" xmlns="http://www.w3.org/2000/svg">
<circle cx="30" cy="30" r="30" fill="white"/>
<g clip-path="url(#clip0_103_119)">
<path d="M24.5673 19.8309H23.8462V18.3666H24.5673C24.9499 18.3666 25.3167 18.2123 25.5872 17.9377C25.8577 17.6631 26.0097 17.2907 26.0097 16.9023V16.1702H27.452V16.9023C27.452 17.679 27.148 18.4239 26.6071 18.9731C26.0661 19.5223 25.3324 19.8309 24.5673 19.8309Z" fill="#6B9D52"/>
<path d="M35.3847 19.8309H34.6635C33.8985 19.8309 33.1648 19.5223 32.6238 18.9731C32.0828 18.4239 31.7789 17.679 31.7789 16.9023V16.1702H33.2212V16.9023C33.2212 17.2907 33.3732 17.6631 33.6437 17.9377C33.9142 18.2123 34.281 18.3666 34.6635 18.3666H35.3847V19.8309Z" fill="#6B9D52"/>
<path d="M29.6154 29.3487C28.7596 29.3487 27.923 29.0911 27.2115 28.6084C26.4999 28.1257 25.9453 27.4396 25.6178 26.6369C25.2903 25.8342 25.2046 24.951 25.3716 24.0988C25.5385 23.2467 25.9506 22.464 26.5558 21.8496C27.1609 21.2353 27.9319 20.8169 28.7712 20.6474C29.6106 20.4779 30.4806 20.5649 31.2712 20.8974C32.0619 21.2299 32.7376 21.7929 33.2131 22.5153C33.6885 23.2377 33.9423 24.087 33.9423 24.9558C33.9412 26.1205 33.4849 27.2372 32.6737 28.0608C31.8625 28.8844 30.7626 29.3475 29.6154 29.3487ZM29.6154 22.0273C29.0449 22.0273 28.4871 22.199 28.0128 22.5208C27.5384 22.8426 27.1687 23.3 26.9503 23.8351C26.732 24.3703 26.6749 24.9591 26.7862 25.5272C26.8975 26.0953 27.1722 26.6171 27.5756 27.0267C27.9791 27.4362 28.4931 27.7151 29.0526 27.8281C29.6122 27.9411 30.1922 27.8832 30.7193 27.6615C31.2464 27.4398 31.6969 27.0645 32.0138 26.5829C32.3308 26.1013 32.5 25.5351 32.5 24.9558C32.5 24.1791 32.1961 23.4342 31.6551 22.885C31.1141 22.3358 30.3804 22.0273 29.6154 22.0273Z" fill="#6B9D52"/>
<path d="M35.3846 35.938H23.8462C23.6549 35.938 23.4715 35.8608 23.3362 35.7235C23.201 35.5862 23.125 35.4 23.125 35.2058V16.1701C23.125 15.976 23.201 15.7897 23.3362 15.6524C23.4715 15.5151 23.6549 15.438 23.8462 15.438H35.3846C35.5759 15.438 35.7593 15.5151 35.8945 15.6524C36.0298 15.7897 36.1058 15.976 36.1058 16.1701V35.2058C36.1058 35.4 36.0298 35.5862 35.8945 35.7235C35.7593 35.8608 35.5759 35.938 35.3846 35.938ZM24.5673 34.4737H34.6635V16.9023H24.5673V34.4737Z" fill="#6B9D52"/>
<path d="M33.2212 35.2059H31.7789V34.4737C31.7789 33.697 32.0828 32.9521 32.6238 32.4029C33.1648 31.8537 33.8985 31.5452 34.6635 31.5452H35.3847V33.0094H34.6635C34.281 33.0094 33.9142 33.1637 33.6437 33.4383C33.3732 33.7129 33.2212 34.0854 33.2212 34.4737V35.2059Z" fill="#6B9D52"/>
<path d="M27.452 35.2059H26.0097V34.4737C26.0097 34.0854 25.8577 33.7129 25.5872 33.4383C25.3167 33.1637 24.9499 33.0094 24.5673 33.0094H23.8462V31.5452H24.5673C25.3324 31.5452 26.0661 31.8537 26.6071 32.4029C27.148 32.9521 27.452 33.697 27.452 34.4737V35.2059Z" fill="#6B9D52"/>
<path d="M37.5481 34.4736H21.6827V35.9379H37.5481V34.4736Z" fill="#6B9D52"/>
<path d="M46.202 45.4558H13.0289C12.8376 45.4558 12.6542 45.3787 12.519 45.2414C12.3837 45.1041 12.3077 44.9178 12.3077 44.7237V25.688C12.3077 25.4938 12.3837 25.3076 12.519 25.1702C12.6542 25.0329 12.8376 24.9558 13.0289 24.9558H23.8462V26.4201H13.75V43.9915H45.4808V26.4201H35.3847V24.9558H46.202C46.3932 24.9558 46.5767 25.0329 46.7119 25.1702C46.8471 25.3076 46.9231 25.4938 46.9231 25.688V44.7237C46.9231 44.9178 46.8471 45.1041 46.7119 45.2414C46.5767 45.3787 46.3932 45.4558 46.202 45.4558Z" fill="#6B9D52"/>
<path d="M46.202 45.4557H13.0289C12.8376 45.4557 12.6542 45.3786 12.519 45.2413C12.3837 45.104 12.3077 44.9177 12.3077 44.7236V38.8664C12.3077 38.6722 12.3837 38.486 12.519 38.3487C12.6542 38.2114 12.8376 38.1343 13.0289 38.1343H46.202C46.3932 38.1343 46.5767 38.2114 46.7119 38.3487C46.8471 38.486 46.9231 38.6722 46.9231 38.8664V44.7236C46.9231 44.9177 46.8471 45.104 46.7119 45.2413C46.5767 45.3786 46.3932 45.4557 46.202 45.4557ZM13.75 43.9914H45.4808V39.5986H13.75V43.9914Z" fill="#6B9D52"/>
<path d="M18.077 41.063H15.1924V42.5273H18.077V41.063Z" fill="#6B9D52"/>
<path d="M20.9616 41.063H19.5193V42.5273H20.9616V41.063Z" fill="#6B9D52"/>
<path d="M29.6154 45.4557C28.9023 45.4557 28.2051 45.241 27.6122 44.8388C27.0192 44.4365 26.557 43.8648 26.2841 43.1959C26.0112 42.527 25.9398 41.7909 26.0789 41.0808C26.2181 40.3707 26.5615 39.7184 27.0657 39.2065C27.57 38.6945 28.2125 38.3459 28.912 38.2046C29.6114 38.0634 30.3364 38.1359 30.9953 38.4129C31.6541 38.69 32.2173 39.1592 32.6135 39.7612C33.0097 40.3632 33.2212 41.071 33.2212 41.795C33.22 42.7655 32.8398 43.696 32.1638 44.3822C31.4878 45.0685 30.5714 45.4545 29.6154 45.4557ZM29.6154 39.5986C29.1875 39.5986 28.7692 39.7274 28.4135 39.9687C28.0577 40.2101 27.7804 40.5531 27.6166 40.9545C27.4529 41.3558 27.41 41.7974 27.4935 42.2235C27.577 42.6496 27.783 43.0409 28.0856 43.3481C28.3882 43.6553 28.7737 43.8645 29.1933 43.9492C29.613 44.034 30.048 43.9905 30.4433 43.8242C30.8387 43.658 31.1765 43.3765 31.4143 43.0153C31.652 42.6541 31.7789 42.2294 31.7789 41.795C31.7789 41.2125 31.5509 40.6538 31.1452 40.2419C30.7395 39.83 30.1892 39.5986 29.6154 39.5986Z" fill="#6B9D52"/>
<path d="M39.7116 41.063H38.2693V42.5273H39.7116V41.063Z" fill="#6B9D52"/>
<path d="M44.0386 41.063H41.1539V42.5273H44.0386V41.063Z" fill="#6B9D52"/>
<path d="M16.6347 30.0807H15.1924V28.6164C15.1924 28.4222 15.2684 28.236 15.4036 28.0987C15.5388 27.9614 15.7223 27.8843 15.9135 27.8843H17.3558V29.3486H16.6347V30.0807Z" fill="#6B9D52"/>
<path d="M44.0385 30.0807H42.5962V29.3486H41.875V27.8843H43.3173C43.5086 27.8843 43.692 27.9614 43.8272 28.0987C43.9625 28.236 44.0385 28.4222 44.0385 28.6164V30.0807Z" fill="#6B9D52"/>
</g>
<defs>
<clipPath id="clip0_103_119">
<rect width="34.6154" height="30" fill="white" transform="translate(12.3077 15.3845)"/>
</clipPath>
</defs>
</svg>
