<svg width="60" height="60" viewBox="0 0 60 60" fill="none" xmlns="http://www.w3.org/2000/svg">
<circle cx="30" cy="30" r="30" fill="white"/>
<g clip-path="url(#clip0_103_117)">
<path d="M45.3249 21.7271H43.9134L35.5705 13.4809C35.4371 13.3491 35.2615 13.2798 35.0719 13.2798C34.8823 13.2798 34.7067 13.3561 34.5733 13.4809L26.2304 21.7271H14.4254C14.0392 21.7271 13.7231 22.0392 13.7231 22.4206V38.4205C13.7231 38.802 14.0392 39.114 14.4254 39.114H15.837L24.1868 47.3602C24.3273 47.4989 24.5029 47.5613 24.6854 47.5613C24.868 47.5613 25.0436 47.492 25.184 47.3602L33.5339 39.114H45.3249C45.7111 39.114 46.0272 38.802 46.0272 38.4205V22.4206C46.0272 22.0322 45.7111 21.7271 45.3249 21.7271ZM35.0719 14.9512L41.926 21.7201H28.2178L35.0719 14.9512ZM24.6784 45.883L17.8244 39.114H31.5395L24.6784 45.883ZM44.6226 37.72H33.232H16.1249H15.1277V23.1141H26.5183H43.6254H44.6226V37.72Z" fill="#6B9D52"/>
<path d="M41.8908 26.991C41.8416 26.991 41.7995 26.998 41.7644 26.998C40.7461 26.998 39.9174 26.1796 39.9174 25.174C39.9174 25.1323 39.9174 25.0838 39.9244 25.0283C39.9385 24.8341 39.8753 24.6469 39.7418 24.5012C39.6084 24.3556 39.4188 24.2793 39.2292 24.2793H20.5982C20.4016 24.2793 20.212 24.3625 20.0856 24.5012C19.9521 24.6469 19.8889 24.8341 19.903 25.0283C19.91 25.0838 19.91 25.1323 19.91 25.174C19.91 26.1796 19.0813 26.998 18.063 26.998C18.0069 26.998 17.9507 26.998 17.8875 26.991C17.6908 26.9702 17.4942 27.0396 17.3467 27.1713C17.1993 27.3031 17.115 27.4904 17.115 27.6846V32.8376C17.115 33.0317 17.1993 33.219 17.3467 33.3508C17.4942 33.4825 17.6908 33.545 17.8875 33.5311C17.9507 33.5242 18.0069 33.5242 18.063 33.5242C19.0813 33.5242 19.91 34.3425 19.91 35.3482C19.91 35.473 19.8959 35.6048 19.8679 35.7296C19.8257 35.9377 19.8749 36.1457 20.0083 36.3122C20.1417 36.4717 20.3454 36.5688 20.5561 36.5688H39.2783C39.489 36.5688 39.6927 36.4717 39.8261 36.3122C39.9595 36.1527 40.0087 35.9377 39.9666 35.7296C39.9385 35.6048 39.9244 35.473 39.9244 35.3482C39.9244 34.3425 40.7531 33.5242 41.7714 33.5242C41.8065 33.5242 41.8486 33.5242 41.8978 33.5311C42.0944 33.545 42.284 33.4756 42.4245 33.3438C42.5649 33.2121 42.6492 33.0317 42.6492 32.8376V27.6915C42.6492 27.4973 42.572 27.317 42.4245 27.1852C42.277 27.0465 42.0874 26.9772 41.8908 26.991ZM41.2377 32.1718C39.7489 32.4145 38.5972 33.6559 38.5199 35.1748H21.3005C21.2232 33.6351 20.0364 32.3729 18.5125 32.1579V28.3504C19.924 28.1492 21.0547 27.0534 21.2654 25.6594H38.548C38.7587 27.0257 39.8542 28.1146 41.2306 28.3434V32.1718H41.2377Z" fill="#6B9D52"/>
<path d="M29.8753 26.6511C27.7685 26.6511 26.062 28.3434 26.062 30.417C26.062 32.4907 27.7755 34.1829 29.8753 34.1829C31.9751 34.1829 33.6886 32.4907 33.6886 30.417C33.6886 28.3434 31.9821 26.6511 29.8753 26.6511ZM29.8753 32.7959C28.548 32.7959 27.4665 31.7278 27.4665 30.417C27.4665 29.1062 28.548 28.0382 29.8753 28.0382C31.2026 28.0382 32.284 29.1062 32.284 30.417C32.284 31.7278 31.2026 32.7959 29.8753 32.7959Z" fill="#6B9D52"/>
<path d="M22.5716 28.4543C21.4761 28.4543 20.5842 29.3351 20.5842 30.4171C20.5842 31.499 21.4761 32.3798 22.5716 32.3798C23.6672 32.3798 24.559 31.499 24.559 30.4171C24.559 29.3351 23.6672 28.4543 22.5716 28.4543ZM22.5716 30.9927C22.2486 30.9927 21.9888 30.7361 21.9888 30.4171C21.9888 30.098 22.2486 29.8414 22.5716 29.8414C22.8947 29.8414 23.1545 30.098 23.1545 30.4171C23.1545 30.7361 22.8947 30.9927 22.5716 30.9927Z" fill="#6B9D52"/>
<path d="M37.3473 28.4543C36.2517 28.4543 35.3599 29.3351 35.3599 30.4171C35.3599 31.499 36.2517 32.3798 37.3473 32.3798C38.4428 32.3798 39.3347 31.499 39.3347 30.4171C39.3347 29.3351 38.4428 28.4543 37.3473 28.4543ZM37.3473 30.9927C37.0242 30.9927 36.7644 30.7361 36.7644 30.4171C36.7644 30.098 37.0242 29.8414 37.3473 29.8414C37.6703 29.8414 37.9301 30.098 37.9301 30.4171C37.9301 30.7361 37.6633 30.9927 37.3473 30.9927Z" fill="#6B9D52"/>
</g>
<defs>
<clipPath id="clip0_103_117">
<rect width="35.3846" height="34.6154" fill="white" transform="translate(12.3076 13.0771)"/>
</clipPath>
</defs>
</svg>
