<svg width="60" height="60" viewBox="0 0 60 60" fill="none" xmlns="http://www.w3.org/2000/svg">
<circle cx="30" cy="30" r="30" fill="white"/>
<g clip-path="url(#clip0_103_116)">
<path d="M46.1539 17.6924H13.8462V42.2499H46.1539V17.6924ZM15.4652 19.3017H44.5421V22.945H15.4652V19.3017ZM44.5421 40.6405H15.4652V27.8301H44.5421V40.6405ZM30.359 31.8017H18.5129C18.338 31.8044 18.1678 31.7463 18.0315 31.6375C17.8951 31.5287 17.8013 31.376 17.7662 31.2058C17.7488 31.1027 17.7545 30.9971 17.7827 30.8964C17.8109 30.7957 17.861 30.7024 17.9295 30.6231C17.998 30.5438 18.0832 30.4804 18.179 30.4374C18.2748 30.3944 18.379 30.3729 18.4841 30.3743H30.3303C30.5048 30.3708 30.675 30.4281 30.8114 30.5363C30.9478 30.6445 31.0418 30.7968 31.077 30.9667C31.0949 31.07 31.0897 31.176 31.0618 31.2772C31.0338 31.3783 30.9838 31.4721 30.9152 31.5518C30.8467 31.6315 30.7613 31.6952 30.6652 31.7384C30.569 31.7816 30.4645 31.8032 30.359 31.8017ZM24.4144 35.0132H18.5129C18.338 35.0159 18.1678 34.9579 18.0315 34.8491C17.8951 34.7403 17.8013 34.5875 17.7662 34.4173C17.7488 34.3142 17.7545 34.2086 17.7827 34.1079C17.8109 34.0072 17.861 33.9139 17.9295 33.8346C17.998 33.7553 18.0832 33.6919 18.179 33.649C18.2748 33.606 18.379 33.5844 18.4841 33.5859H24.3749C24.5499 33.5825 24.7205 33.6403 24.857 33.7492C24.9935 33.8581 25.0871 34.0112 25.1216 34.1818C25.1388 34.284 25.1334 34.3887 25.1058 34.4886C25.0782 34.5885 25.029 34.6812 24.9617 34.7603C24.8944 34.8394 24.8106 34.903 24.7161 34.9467C24.6216 34.9904 24.5186 35.0131 24.4144 35.0132ZM41.7134 36.9294H34.3544V29.6143H41.7134V36.9294ZM35.7903 35.5021H40.2775V31.0416H35.7903V35.5021Z" fill="#6B9D52"/>
</g>
<defs>
<clipPath id="clip0_103_116">
<rect width="32.3077" height="24.6154" fill="white" transform="translate(13.8462 17.6924)"/>
</clipPath>
</defs>
</svg>
