<svg width="59" height="31" viewBox="0 0 59 31" fill="none" xmlns="http://www.w3.org/2000/svg">
<g clip-path="url(#clip0_150_490)">
<path fill-rule="evenodd" clip-rule="evenodd" d="M38.5837 24.0493C38.4784 25.7075 36.4609 27.2332 32.9827 28.1854C29.4168 29.1639 24.4209 29.5251 19.4096 29.1572C14.398 28.7791 9.50997 27.6765 6.12949 26.1786C2.73514 24.681 0.96638 22.8127 1.21911 21.1224L1.70586 14.6305L39.0749 17.4221L38.5837 24.0493Z" fill="#FECF3D" stroke="#2B2A29" stroke-width="2" stroke-miterlimit="22.9256" stroke-linecap="round" stroke-linejoin="round"/>
<path fill-rule="evenodd" clip-rule="evenodd" d="M20.8659 9.68481C25.6547 10.0183 30.3918 11.0488 33.7266 12.4831C37.113 13.9003 39.1249 15.7129 39.0752 17.4224C39.0733 19.1319 37.042 20.7155 33.4697 21.6935C29.9037 22.672 24.9079 23.0331 19.8966 22.6653C14.8854 22.2872 9.9973 21.1843 6.61652 19.6868C3.22258 18.1893 1.45371 16.321 1.70641 14.6302C1.9118 12.9311 4.17076 11.4382 7.73169 10.541C11.2434 9.61698 16.0802 9.30323 20.8659 9.68481Z" fill="#FECF3D" stroke="#2B2A29" stroke-width="2" stroke-miterlimit="22.9256"/>
<path d="M30.6539 22.832L30.2539 28.2257" stroke="#2B2A29" stroke-width="2" stroke-miterlimit="22.9256" stroke-linecap="round" stroke-linejoin="round"/>
<path d="M19.8961 22.6649L19.5 28.4999" stroke="#2B2A29" stroke-width="2" stroke-miterlimit="22.9256" stroke-linecap="round" stroke-linejoin="round"/>
<path d="M8.1941 20.3186L7.5 26" stroke="#2B2A29" stroke-width="2" stroke-miterlimit="22.9256" stroke-linecap="round" stroke-linejoin="round"/>
<path fill-rule="evenodd" clip-rule="evenodd" d="M54.63 25.4341C53.9264 26.9393 51.4911 27.6229 47.9054 27.2392C44.2284 26.848 39.4457 25.3599 34.9148 23.1875C30.3874 21.0055 26.2395 18.194 23.6395 15.5651C21.0264 12.9315 20.062 10.5463 20.9145 9.06501L23.7383 3.19914L57.5073 19.4439L54.63 25.4341Z" fill="#FECF3D" stroke="#2B2A29" stroke-width="2" stroke-miterlimit="22.9256" stroke-linecap="round" stroke-linejoin="round"/>
<path fill-rule="evenodd" clip-rule="evenodd" d="M43.3811 5.59148C47.7174 7.6507 51.7511 10.3398 54.3318 12.8929C56.9668 15.4487 58.1779 17.8708 57.5074 19.4442C56.8814 21.0349 54.4121 21.7674 50.7293 21.3733C47.0523 20.9821 42.2696 19.4939 37.7387 17.3216C33.2116 15.1397 29.0638 12.328 26.4633 9.69942C23.8506 7.06588 22.8862 4.68065 23.7388 3.19898C24.5505 1.69217 27.1986 1.1273 30.8412 1.59237C34.4478 2.01452 39.0653 3.4887 43.3811 5.59148Z" fill="#FECF3D" stroke="#2B2A29" stroke-width="2" stroke-miterlimit="22.9256"/>
<path d="M47.6926 21.4054L45.3506 26.2804" stroke="#2B2A29" stroke-width="2" stroke-miterlimit="22.9256" stroke-linecap="round" stroke-linejoin="round"/>
<path d="M37.7387 17.3213L35 22.5" stroke="#2B2A29" stroke-width="2" stroke-miterlimit="22.9256" stroke-linecap="round" stroke-linejoin="round"/>
<path d="M27.7017 10.8638L24.5 16" stroke="#2B2A29" stroke-width="2" stroke-miterlimit="22.9256" stroke-linecap="round" stroke-linejoin="round"/>
</g>
<defs>
<clipPath id="clip0_150_490">
<rect width="59" height="31" fill="white"/>
</clipPath>
</defs>
</svg>
