<svg width="83" height="83" viewBox="0 0 83 83" fill="none" xmlns="http://www.w3.org/2000/svg">
<circle cx="41.5" cy="41.5" r="41.5" fill="#6B9D52"/>
<path d="M46.7003 40.1676H57.6252V33.515H46.7003V40.1676ZM57.6252 42.3851V63.452C57.6252 64.0642 57.1361 64.5605 56.5329 64.5605H25.9411C25.3379 64.5605 24.8484 64.0642 24.8484 63.452V42.3851H23.7561C23.1525 42.3851 22.6635 41.8887 22.6635 41.2762V32.4061C22.6635 31.7939 23.1525 31.2972 23.7561 31.2972H33.4365L28.1282 29.7581C26.1868 29.1968 24.8483 27.3962 24.8483 25.3478C24.8483 20.6189 30.6238 18.4167 33.6944 21.9743L41.2366 30.7226L48.7797 21.9739C51.8499 18.4167 57.6249 20.6189 57.6249 25.3478C57.6249 27.3963 56.2868 29.1968 54.3462 29.7581L49.0372 31.2972H58.7175C59.3208 31.2972 59.8102 31.7939 59.8102 32.4061V41.2762C59.8102 41.8887 59.3208 42.3851 58.7175 42.3851H57.6252ZM24.8486 40.1676H35.7745V33.515H24.8486V40.1676ZM37.9593 33.515V40.1676H44.5146V33.515H41.2611C41.2446 33.5154 41.2282 33.5154 41.2117 33.515H37.9593ZM44.5146 42.3851H37.9593V62.3429H44.5146V42.3851ZM46.6999 42.3851V62.3429H55.4402V42.3851H46.6999ZM35.7741 42.3851H27.0338V62.3429H35.7741V42.3851ZM32.0505 23.4355C30.3088 21.4175 27.0338 22.6667 27.0338 25.3481C27.0338 26.4062 27.7248 27.3361 28.7279 27.6261L37.9756 30.308L32.0505 23.4355ZM53.7467 27.6257C54.749 27.3362 55.4401 26.4062 55.4401 25.3481C55.4401 22.6667 52.1649 21.4175 50.4237 23.4351L44.4984 30.3079L53.7467 27.6257Z" fill="white"/>
</svg>
