<svg width="83" height="83" viewBox="0 0 83 83" fill="none" xmlns="http://www.w3.org/2000/svg">
<circle cx="41.5" cy="41.5" r="41.5" fill="#6B9D52"/>
<g clip-path="url(#clip0_229_8)">
<path d="M52.264 12.6401H29.736C27.4735 12.6401 25.64 14.4736 25.64 16.7361V65.3979C25.64 67.6604 27.4735 69.4939 29.736 69.4939H52.264C54.5265 69.4939 56.36 67.6604 56.36 65.3979L56.3596 16.7361C56.3596 14.4736 54.5261 12.6401 52.2636 12.6401H52.264ZM41.0001 67.679C39.5269 67.679 38.3332 66.4853 38.3332 65.0129C38.3332 63.5397 39.5269 62.346 41.0001 62.346C42.472 62.346 43.6662 63.5397 43.6662 65.0129C43.6662 66.4853 42.4729 67.679 41.0001 67.679ZM53.8001 58.9968C53.8001 59.8437 53.1108 60.5329 52.264 60.5329L29.736 60.5325C28.8891 60.5325 28.1999 59.8432 28.1999 58.9964V16.7358C28.1999 15.8889 28.8892 15.1997 29.736 15.1997H52.264C53.1104 15.1997 53.7998 15.889 53.7998 16.7358L53.8001 58.9968Z" fill="white"/>
</g>
<defs>
<clipPath id="clip0_229_8">
<rect width="32" height="57" fill="white" transform="translate(25 13)"/>
</clipPath>
</defs>
</svg>
