<svg width="83" height="83" viewBox="0 0 83 83" fill="none" xmlns="http://www.w3.org/2000/svg">
<circle cx="41.5" cy="41.5" r="41.5" fill="#6B9D52"/>
<path fill-rule="evenodd" clip-rule="evenodd" d="M44.7045 21.2543L46.4072 15.5788C46.5104 15.2352 46.8267 15 47.1853 15H56.9309C57.3795 15 57.743 15.3634 57.743 15.8121C57.743 16.2607 57.3795 16.6242 56.9309 16.6242H47.7898L46.1365 22.1348C49.0233 24.1964 50.9723 27.487 51.2194 31.2422H52.0584C52.5067 31.2422 52.8705 31.606 52.8705 32.0547V40.1758C52.8705 40.6241 52.5067 40.9879 52.0584 40.9879H51.1353L47.177 67.9056C47.1183 68.3042 46.7762 68.5995 46.3736 68.5995H31.7551C31.3521 68.5995 31.01 68.3042 30.9516 67.9056L26.993 40.9879H26.0703C25.6216 40.9879 25.2582 40.6241 25.2582 40.1758V32.0547C25.2582 31.606 25.6216 31.2422 26.0703 31.2422H26.9089C27.3269 24.8933 32.6091 19.8723 39.0646 19.8723C41.1 19.8723 43.0187 20.3714 44.705 21.2539L44.7045 21.2543ZM32.4569 66.9761H45.6722L49.4937 40.9877H28.6347L32.4569 66.9761ZM26.8827 32.8673V39.3643H51.2458V32.8673H26.8827ZM45.6389 23.7939L43.4045 31.2428H49.5912C49.362 28.23 47.868 25.5702 45.6389 23.7939ZM44.2283 22.8443C42.7017 21.9866 40.94 21.4976 39.0646 21.4976C33.5068 21.4976 28.9524 25.7916 28.5379 31.2432H41.7092L44.2283 22.8443ZM39.0646 57.2306C36.3734 57.2306 34.1918 55.0489 34.1918 52.3581C34.1918 49.6669 36.3734 47.4853 39.0646 47.4853C41.7554 47.4853 43.937 49.6669 43.937 52.3581C43.937 55.0489 41.7554 57.2306 39.0646 57.2306ZM39.0646 55.6064C40.8585 55.6064 42.3129 54.152 42.3129 52.358C42.3129 50.5638 40.8585 49.1094 39.0646 49.1094C37.2703 49.1094 35.8159 50.5638 35.8159 52.358C35.8159 54.1519 37.2703 55.6064 39.0646 55.6064Z" fill="white"/>
</svg>
